<svg width="24" height="24" viewBox="0 0 24 24" fill="none" xmlns="http://www.w3.org/2000/svg">
<g id="menu">
<path id="Vector (Stroke)" fill-rule="evenodd" clip-rule="evenodd" d="M4.92903 19.0711C4.53851 18.6805 4.53851 18.0474 4.92903 17.6569L17.657 4.92893C18.0475 4.53841 18.6806 4.53841 19.0712 4.92893C19.4617 5.31946 19.4617 5.95262 19.0712 6.34315L6.34324 19.0711C5.95272 19.4616 5.31955 19.4616 4.92903 19.0711Z" fill="#fff"/>
<path id="Vector (Stroke)_2" fill-rule="evenodd" clip-rule="evenodd" d="M4.92903 19.0711C4.53851 18.6805 4.53851 18.0474 4.92903 17.6569L17.657 4.92893C18.0475 4.53841 18.6806 4.53841 19.0712 4.92893C19.4617 5.31946 19.4617 5.95262 19.0712 6.34315L6.34324 19.0711C5.95272 19.4616 5.31955 19.4616 4.92903 19.0711Z" fill="#fff"/>
<path id="Vector (Stroke)_3" fill-rule="evenodd" clip-rule="evenodd" d="M4.92888 4.92893C5.3194 4.53841 5.95257 4.53841 6.34309 4.92893L19.071 17.6569C19.4615 18.0474 19.4615 18.6805 19.071 19.0711C18.6805 19.4616 18.0473 19.4616 17.6568 19.0711L4.92888 6.34314C4.53836 5.95262 4.53836 5.31946 4.92888 4.92893Z" fill="#fff"/>
</g>
</svg>
