<svg width="25" height="24" viewBox="0 0 25 24" fill="none" xmlns="http://www.w3.org/2000/svg">
<g id="instagram-fill" clip-path="url(#clip0_173_827)">
<path id="Vector" d="M12.5375 16.3504C14.9399 16.3504 16.8875 14.4028 16.8875 12.0004C16.8875 9.59795 14.9399 7.65039 12.5375 7.65039C10.1351 7.65039 8.1875 9.59795 8.1875 12.0004C8.1875 14.4028 10.1351 16.3504 12.5375 16.3504Z" fill="#001B5C"/>
<path id="Vector_2" d="M17.2625 0.375H7.7375C3.95 0.375 0.875 3.45 0.875 7.2375V16.6875C0.875 20.55 3.95 23.625 7.7375 23.625H17.1875C21.05 23.625 24.125 20.55 24.125 16.7625V7.2375C24.125 3.45 21.05 0.375 17.2625 0.375ZM12.5375 17.7C9.35 17.7 6.8375 15.1125 6.8375 12C6.8375 8.8875 9.3875 6.3 12.5375 6.3C15.65 6.3 18.2 8.8875 18.2 12C18.2 15.1125 15.6875 17.7 12.5375 17.7ZM20.4125 6.825C20.0375 7.2375 19.475 7.4625 18.8375 7.4625C18.275 7.4625 17.7125 7.2375 17.2625 6.825C16.85 6.4125 16.625 5.8875 16.625 5.25C16.625 4.6125 16.85 4.125 17.2625 3.675C17.675 3.225 18.2 3 18.8375 3C19.4 3 20 3.225 20.4125 3.6375C20.7875 4.125 21.05 4.6875 21.05 5.2875C21.0125 5.8875 20.7875 6.4125 20.4125 6.825Z" fill="#001B5C"/>
<path id="Vector_3" d="M18.8756 4.34961C18.3881 4.34961 17.9756 4.76211 17.9756 5.24961C17.9756 5.73711 18.3881 6.14961 18.8756 6.14961C19.3631 6.14961 19.7756 5.73711 19.7756 5.24961C19.7756 4.76211 19.4006 4.34961 18.8756 4.34961Z" fill="#001B5C"/>
</g>
<defs>
<clipPath id="clip0_173_827">
<rect width="24" height="24" fill="white" transform="translate(0.5)"/>
</clipPath>
</defs>
</svg>
