<svg width="34" height="34" viewBox="0 0 34 34" fill="none" xmlns="http://www.w3.org/2000/svg">
<g id="Vector">
<path d="M14.227 9.16929C14.227 9.5759 14.5508 9.90551 14.9504 9.90551C15.3499 9.90551 15.6738 9.5759 15.6738 9.16929C15.6738 8.76269 15.3499 8.43307 14.9504 8.43307C14.5508 8.43307 14.227 8.76269 14.227 9.16929Z" fill="#001B5C"/>
<path fill-rule="evenodd" clip-rule="evenodd" d="M20.7376 3.48032V8.83465H21.0993L21.0993 3.48032H20.7376Z" fill="#001B5C"/>
<path d="M20.2553 9.16929C20.2553 9.5759 20.5522 9.90551 20.9184 9.90551C21.2847 9.90551 21.5816 9.5759 21.5816 9.16929C21.5816 8.76269 21.2847 8.43307 20.9184 8.43307C20.5522 8.43307 20.2553 8.76269 20.2553 9.16929Z" fill="#001B5C"/>
<path fill-rule="evenodd" clip-rule="evenodd" d="M14.7092 3.48032V8.83465H15.0709V3.48032H14.7092Z" fill="#001B5C"/>
<path fill-rule="evenodd" clip-rule="evenodd" d="M33.0795 25.9945C33.4588 26.5987 33.5684 27.3508 33.5492 27.8571C33.5442 27.9913 33.6404 28.1045 33.7642 28.11C33.888 28.1155 33.9925 28.0112 33.9976 27.8771C34.0195 27.2974 33.8981 26.434 33.4505 25.721C32.9927 24.9918 32.2071 24.4432 30.9596 24.5001C30.8358 24.5058 30.7397 24.6191 30.7449 24.7533C30.7501 24.8874 30.8547 24.9916 30.9785 24.9859C32.0732 24.9359 32.7103 25.4064 33.0795 25.9945Z" fill="#001B5C"/>
<path fill-rule="evenodd" clip-rule="evenodd" d="M0.920534 25.8378C0.541219 26.4868 0.431589 27.2946 0.450765 27.8384C0.455846 27.9825 0.359606 28.1041 0.235805 28.11C0.112005 28.1159 0.00752565 28.0039 0.0024443 27.8598C-0.01951 27.2372 0.10194 26.3099 0.549537 25.544C1.00729 24.7608 1.79289 24.1715 3.04042 24.2327C3.16421 24.2388 3.26034 24.3605 3.25512 24.5046C3.2499 24.6487 3.14532 24.7606 3.02152 24.7545C1.92684 24.7008 1.2897 25.2061 0.920534 25.8378Z" fill="#001B5C"/>
<path fill-rule="evenodd" clip-rule="evenodd" d="M15.8858 14.6416C15.7853 14.7266 15.7644 14.8881 15.8392 15.0024C16.2208 15.5852 16.6275 15.954 17.0432 16.1518C17.4603 16.3502 17.872 16.3693 18.2514 16.2789C18.9997 16.1006 19.6201 15.4987 19.9645 15.0095C20.0427 14.8983 20.0269 14.736 19.929 14.6471C19.8312 14.5581 19.6884 14.5761 19.6101 14.6873C19.3041 15.1221 18.7674 15.629 18.1583 15.7741C17.859 15.8454 17.5419 15.8299 17.2183 15.676C16.8934 15.5215 16.5476 15.2204 16.2032 14.6945C16.1284 14.5802 15.9863 14.5565 15.8858 14.6416Z" fill="#001B5C"/>
<path fill-rule="evenodd" clip-rule="evenodd" d="M2.10272 26.8599C2.02289 26.9652 2.03442 27.1231 2.12847 27.2124C8.58772 33.3516 14.9372 34.6419 20.253 33.7425C25.5585 32.8449 29.819 29.7694 32.1257 27.1991C32.2131 27.1016 32.2135 26.9433 32.1265 26.8453C32.0394 26.7474 31.898 26.747 31.8106 26.8445C29.5608 29.3514 25.3841 32.3685 20.1863 33.2479C14.9988 34.1256 8.7789 32.8772 2.41754 26.8311C2.32349 26.7417 2.18254 26.7546 2.10272 26.8599Z" fill="#001B5C"/>
<path fill-rule="evenodd" clip-rule="evenodd" d="M24.235 6.69291H11.4864L9.04255 23.0646L9.48553 23.1446L11.233 11.4382L10.6097 24.2283H25.078L24.235 6.69291ZM11.8897 7.18687H23.8092L24.6047 23.7344H11.0833L11.8897 7.18687Z" fill="#001B5C"/>
<path fill-rule="evenodd" clip-rule="evenodd" d="M9.04255 23.1397L10.6 24.2283L10.8511 23.8446L9.29362 22.7559L9.04255 23.1397Z" fill="#001B5C"/>
<path fill-rule="evenodd" clip-rule="evenodd" d="M17.9043 0.490185C18.2664 0.490185 18.6249 0.567895 18.9591 0.718713C19.2934 0.869526 19.5967 1.0904 19.8519 1.36839C20.1071 1.64637 20.3092 1.976 20.447 2.33829C20.5847 2.70056 20.6555 3.0886 20.6555 3.48031L21.0993 3.48032C21.0993 3.02327 21.0166 2.57071 20.8561 2.14846C20.6955 1.7262 20.4602 1.34254 20.1635 1.01936C19.8668 0.696184 19.5146 0.439826 19.1269 0.264923C18.7393 0.090021 18.3238 0 17.9043 0C17.4847 0 17.0692 0.090021 16.6816 0.264923C16.2939 0.439825 15.9417 0.696184 15.645 1.01936C15.3483 1.34254 15.113 1.7262 14.9524 2.14846C14.7919 2.57071 14.7092 3.02327 14.7092 3.48032L15.153 3.48031C15.153 3.0886 15.2238 2.70056 15.3616 2.33829C15.4993 1.976 15.7014 1.64637 15.9566 1.36839C16.2118 1.0904 16.5151 0.869526 16.8494 0.718713C17.1836 0.567895 17.5421 0.490185 17.9043 0.490185Z" fill="#001B5C"/>
</g>
</svg>
