<svg width="44" height="57" viewBox="0 0 44 57" fill="none" xmlns="http://www.w3.org/2000/svg">
<g id="Logo">
<g id="Group 4">
<g id="Group 1">
<ellipse id="Ellipse 2" cx="26.0359" cy="23.3709" rx="1.40379" ry="1.39983" fill="#001B5C"/>
<g id="Group 2">
<line id="Line 1" x1="14.3236" y1="22.7148" x2="14.3236" y2="13.5284" stroke="#001B5C" stroke-width="0.876249"/>
<ellipse id="Ellipse 1" cx="14.3669" cy="23.4147" rx="1.40379" ry="1.39983" fill="#001B5C"/>
</g>
<line id="Line 2" x1="26.0803" y1="22.7148" x2="26.0803" y2="13.5284" stroke="#001B5C" stroke-width="0.876249"/>
<path id="Vector 3" d="M16.5165 33.4541C17.774 35.0216 20.991 37.2161 23.7986 33.4541" stroke="#001B5C" stroke-width="0.876249" stroke-linecap="round"/>
</g>
<g id="Group 3">
<path id="Vector 8" d="M32.3968 19.4339L34.0199 49.6177H6.668L8.2692 19.4339H32.3968ZM32.3968 19.4339L37.1127 48.0648" stroke="#001B5C" stroke-width="0.876249"/>
<path id="Vector 9" d="M34.2393 49.6833L37.2881 47.6273" stroke="#001B5C" stroke-width="0.876249"/>
<path id="Ellipse 3" d="M14.3225 13.5284C14.3225 12.7712 14.4741 12.0213 14.769 11.3214C15.0638 10.6214 15.4962 9.98492 16.0418 9.44845C16.5873 8.91196 17.2354 8.48601 17.9492 8.19528C18.663 7.90454 19.4284 7.75481 20.2014 7.75481C20.9744 7.75481 21.7397 7.90454 22.4536 8.19528C23.1674 8.48601 23.8155 8.91196 24.361 9.44845C24.9066 9.98492 25.339 10.6214 25.6338 11.3214C25.9287 12.0213 26.0803 12.7712 26.0803 13.5284" stroke="#001B5C" stroke-width="0.876249"/>
</g>
</g>
</g>
</svg>
