<svg width="25" height="24" viewBox="0 0 25 24" fill="none" xmlns="http://www.w3.org/2000/svg">
<g id="vk" clip-path="url(#clip0_168_809)">
<path id="Vector" d="M16.025 0.375H8.975C2.4125 0.375 0.875 1.9125 0.875 8.475V15.6C0.875 22.0875 2.4125 23.625 8.975 23.625H16.1C22.5875 23.625 24.125 22.0875 24.125 15.525V8.475C24.125 1.9125 22.5875 0.375 16.025 0.375ZM19.625 16.95H17.9375C17.3 16.95 17.075 16.425 15.9125 15.2625C14.9 14.25 14.45 14.1375 14.225 14.1375C13.925 14.1375 13.8125 14.175 13.8125 14.6625V16.2C13.8125 16.6125 13.7 16.8375 12.6125 16.8375C10.8125 16.8375 8.8625 15.7125 7.4375 13.725C5.3375 10.7625 4.8125 8.55 4.8125 8.0625C4.8125 7.8 4.85 7.575 5.3375 7.575H7.025C7.4375 7.575 7.625 7.725 7.775 8.2125C8.6375 10.65 9.9875 12.75 10.5875 12.75C10.8125 12.75 10.8875 12.6375 10.8875 12.1125V9.6375C10.85 8.475 10.25 8.4375 10.25 7.95C10.25 7.8 10.4 7.5375 10.6625 7.5375H13.2875C13.6625 7.5375 13.775 7.6875 13.775 8.175V11.5125C13.775 11.8875 13.925 12 14.0375 12C14.2625 12 14.45 11.8875 14.825 11.475C16.025 10.0875 16.8875 8.025 16.8875 8.025C17 7.7625 17.1875 7.5375 17.6375 7.5375H19.325C19.85 7.5375 19.9625 7.8 19.85 8.175C19.625 9.1875 17.5625 12.075 17.5625 12.075C17.4125 12.3375 17.3 12.4875 17.5625 12.825C17.7125 13.0875 18.35 13.575 18.725 14.025C19.475 14.8875 20 15.5625 20.15 16.05C20.3375 16.6875 20.1125 16.95 19.625 16.95Z" fill="#001B5C"/>
</g>
<defs>
<clipPath id="clip0_168_809">
<rect width="24" height="24" fill="white" transform="translate(0.5)"/>
</clipPath>
</defs>
</svg>
